#!OML:ASF E:\Steps\Project 1\Capture day 1\Session 2\Subject.ASF
:FULLY-SPECIFIED
:DEGREES
68
root 9.24632 16.2999 20.0171 -151.71 -2.71867 -179.412
lowerback -31.7326 -0.926852 -4.26965
upperback -3.93553 -1.01008 -0.0753476
thorax 12.1157 -1.18259 1.71465
lowerneck 0.223923 -2.04482 2.07426
upperneck 2.46632 -2.71487 -3.24117
head 0.645793 -1.38259 -1.3583
rclavicle 7.45443e-015 1.59028e-015
rhumerus -32.4355 -17.42 -82.5559
rradius 27.0579
rwrist 2.38412
rhand -8.41244 -50.1384
rfingers 7.12502
rthumb 17.512 -79.3696
lclavicle 7.45443e-015 1.59028e-015
lhumerus -28.6243 3.72807 84.5563
lradius 20.8717
lwrist -6.30829
lhand -21.007 -12.7586
lfingers 7.12502
lthumb 5.3676 17.1534
rfemur -24.4841 7.57771 18.5057
rtibia 6.33776
rfoot -18.9275 -8.37084
rtoes -26.5039
lfemur -25.5058 -9.75519 -15.6667
ltibia 7.75413
lfoot -7.91855 5.19292
ltoes -39.4942
69
root 9.24557 16.3028 20.0119 -151.892 -2.79536 -179.497
lowerback -31.5867 -0.990328 -4.35142
upperback -3.8942 -1.05372 -0.0590478
thorax 12.1049 -1.19881 1.76315
lowerneck 0.243794 -2.07239 2.14896
upperneck 2.40578 -2.75098 -3.40615
head 0.619852 -1.40131 -1.42254
rclavicle 8.15017e-015 -1.11319e-014
rhumerus -32.4383 -17.4529 -82.463
rradius 27.0035
rwrist 2.43849
rhand -8.45969 -50.1746
rfingers 7.12502
rthumb 17.4665 -79.4099
lclavicle 8.15017e-015 -1.11319e-014
lhumerus -28.7103 3.73285 84.5754
lradius 20.9257
lwrist -6.36993
lhand -21.3529 -12.8428
lfingers 7.12502
lthumb 5.03365 17.0775
rfemur -24.1833 7.51817 18.4816
rtibia 6.24246
rfoot -18.9229 -8.46193
rtoes -26.7912
lfemur -25.2489 -9.81462 -15.7905
ltibia 7.68288
lfoot -7.88937 5.10648
ltoes -39.4282
70
root 9.24389 16.2998 20.0132 -151.768 -2.71077 -179.472
lowerback -31.7126 -0.964062 -4.31683
upperback -3.92239 -1.04378 -0.031849
thorax 12.1255 -1.1989 1.7742
lowerneck 0.285518 -2.09321 2.21316
upperneck 2.3316 -2.77847 -3.56745
head 0.586312 -1.41558 -1.48345
rclavicle -4.96962e-016 9.14409e-015
rhumerus -32.4839 -17.3092 -82.4514
rradius 27.0881
rwrist 2.34453
rhand -8.52278 -50.3688
rfingers 7.12502
rthumb 17.4058 -79.6095
lclavicle -4.96962e-016 9.14409e-015
lhumerus -28.7657 3.88839 84.5456
lradius 20.928
lwrist -6.52151
lhand -21.428 -12.9676
lfingers 7.12502
lthumb 4.96109 16.9543
rfemur -24.4152 7.3722 18.5228
rtibia 6.40248
rfoot -18.9357 -8.25867
rtoes -27.5996
lfemur -25.3848 -9.81102 -15.7573
ltibia 7.67967
lfoot -7.80985 5.217
ltoes -39.7433
71
root 9.24471 16.3013 20.0091 -151.879 -2.79381 -179.488
lowerback -31.6459 -0.985908 -4.31702
upperback -3.88162 -1.05914 -0.0412895
thorax 12.1448 -1.20084 1.76015
lowerneck 0.211017 -2.13325 2.37783
upperneck 2.29677 -2.83137 -3.74948
head 0.582142 -1.44246 -1.57091
rclavicle -6.95746e-016 -1.82882e-014
rhumerus -32.5331 -17.3015 -82.4743
rradius 27.1673
rwrist 2.279
rhand -8.48748 -50.4921
rfingers 7.12502
rthumb 17.4397 -79.7298
lclavicle -6.95746e-016 -1.82882e-014
lhumerus -28.7586 3.97138 84.4483
lradius 20.882
lwrist -6.59918
lhand -21.3192 -12.8705
lfingers 7.12502
lthumb 5.06612 17.0489
rfemur -24.2066 7.45102 18.5209
rtibia 6.31302
rfoot -18.9732 -8.45017
rtoes -28.0842
lfemur -25.237 -9.86418 -15.7701
ltibia 7.6526
lfoot -7.76928 5.20105
ltoes -40.1001
72
root 9.24413 16.2977 20.0114 -151.717 -2.71351 -179.466
lowerback -31.7909 -0.95802 -4.2994
upperback -3.92894 -1.0457 -0.0199198
thorax 12.1511 -1.20184 1.77486
lowerneck 0.221122 -2.15687 2.47113
upperneck 2.23575 -2.86299 -3.91867
head 0.557138 -1.45886 -1.64046
rclavicle -1.98785e-015 -3.18055e-015
rhumerus -32.5428 -17.2561 -82.4292
rradius 27.1565
rwrist 2.31303
rhand -8.54442 -50.6516
rfingers 7.12502
rthumb 17.3849 -79.8942
lclavicle -1.98785e-015 -3.18055e-015
lhumerus -28.8224 4.06367 84.4079
lradius 20.9113
lwrist -6.56152
lhand -21.3028 -12.6646
lfingers 7.12502
lthumb 5.08196 17.2544
rfemur -24.4611 7.35457 18.53
rtibia 6.40983
rfoot -18.8965 -8.36184
rtoes -28.2633
lfemur -25.4329 -9.81684 -15.7401
ltibia 7.68562
lfoot -7.80727 5.2126
ltoes -39.7626
73
root 9.244 16.3016 20.0067 -151.912 -2.81194 -179.567
lowerback -31.6347 -1.03158 -4.38847
upperback -3.8769 -1.09571 -0.0143898
thorax 12.1485 -1.22018 1.81355
lowerneck 0.232924 -2.18075 2.56891
upperneck 2.16939 -2.89523 -4.08223
head 0.530043 -1.47535 -1.70912
rclavicle 1.41634e-015 3.45885e-014
rhumerus -32.5189 -17.3785 -82.3264
rradius 27.0447
rwrist 2.50095
rhand -8.75047 -50.8794
rfingers 7.12502
rthumb 17.1866 -80.1394
lclavicle 1.41634e-015 3.45885e-014
lhumerus -28.8739 4.10503 84.3869
lradius 20.9615
lwrist -6.54418
lhand -21.5996 -13.2217
lfingers 7.12502
lthumb 4.79545 16.7041
rfemur -24.1144 7.43801 18.4209
rtibia 6.23613
rfoot -18.8521 -8.49332
rtoes -27.3816
lfemur -25.1926 -9.92005 -15.8735
ltibia 7.67358
lfoot -7.87883 5.08696
ltoes -39.6265
74
root 9.24377 16.3025 20.0044 -151.959 -2.84509 -179.594
lowerback -31.6084 -1.04359 -4.39524
upperback -3.86022 -1.10246 -0.0303911
thorax 12.1564 -1.22148 1.79815
lowerneck 0.219641 -2.20927 2.71204
upperneck 2.09654 -2.93387 -4.26329
head 0.503962 -1.49479 -1.79195
rclavicle 1.49089e-015 2.3059e-014
rhumerus -32.493 -17.5467 -82.2482
rradius 26.8823
rwrist 2.68123
rhand -8.85599 -50.9288
rfingers 7.12502
rthumb 17.0851 -80.1976
lclavicle 1.49089e-015 2.3059e-014
lhumerus -28.9055 4.18234 84.2925
lradius 20.9269
lwrist -6.66016
lhand -21.9535 -14.1181
lfingers 7.12502
lthumb 4.45366 15.8151
rfemur -24.0364 7.59216 18.3463
rtibia 6.21237
rfoot -18.992 -8.5903
rtoes -26.7501
lfemur -25.1279 -9.99708 -15.899
ltibia 7.66746
lfoot -7.90863 5.0824
ltoes -39.8299
75
root 9.24306 16.3024 20.0033 -151.99 -2.84529 -179.593
lowerback -31.5873 -1.04401 -4.38164
upperback -3.85509 -1.10567 -0.0353475
thorax 12.1536 -1.22138 1.78484
lowerneck 0.214215 -2.23195 2.85735
upperneck 2.03483 -2.96486 -4.44719
head 0.480045 -1.51056 -1.87641
rclavicle -9.93923e-016 1.27222e-014
rhumerus -32.515 -17.5871 -82.1985
rradius 26.8174
rwrist 2.67871
rhand -8.82748 -50.6493
rfingers 7.12502
rthumb 17.1125 -79.9157
lclavicle -9.93923e-016 1.27222e-014
lhumerus -28.9433 4.33025 84.1531
lradius 20.8013
lwrist -6.9774
lhand -21.953 -14.1364
lfingers 7.12502
lthumb 4.45412 15.7967
rfemur -24.0161 7.54304 18.378
rtibia 6.26171
rfoot -19.0528 -8.63631
rtoes -27.7937
lfemur -25.0678 -9.9683 -15.9149
ltibia 7.62319
lfoot -7.90219 5.02421
ltoes -39.6888
76
root 9.24173 16.3011 20.0043 -151.96 -2.81589 -179.584
lowerback -31.6104 -1.01491 -4.36208
upperback -3.86549 -1.07678 -0.0412349
thorax 12.1494 -1.20867 1.77858
lowerneck 0.208161 -2.25873 2.97869
upperneck 1.9857 -3.00155 -4.61359
head 0.460322 -1.5294 -1.95139
rclavicle 8.19987e-015 -1.59028e-014
rhumerus -32.5688 -17.7512 -82.0826
rradius 26.7781
rwrist 2.74099
rhand -8.74138 -50.4723
rfingers 7.12502
rthumb 17.1954 -79.7315
lclavicle 8.19987e-015 -1.59028e-014
lhumerus -28.9729 4.38248 84.0623
lradius 20.6859
lwrist -7.19804
lhand -21.7714 -13.6171
lfingers 7.12502
lthumb 4.62953 16.3123
rfemur -24.0905 7.29511 18.4502
rtibia 6.32676
rfoot -19.0624 -8.46162
rtoes -28.5812
lfemur -25.1082 -9.93516 -15.9142
ltibia 7.63425
lfoot -7.92779 5.07019
ltoes -39.7836
77
root 9.24102 16.2998 20.0039 -151.925 -2.78822 -179.595
lowerback -31.6592 -0.991555 -4.36786
upperback -3.86924 -1.04445 -0.0543571
thorax 12.1631 -1.19581 1.77887
lowerneck 0.208268 -2.28765 3.1052
upperneck 1.92826 -3.04138 -4.78361
head 0.436539 -1.54969 -2.02854
rclavicle 1.63997e-015 -1.39149e-014
rhumerus -32.6236 -17.8605 -82.001
rradius 26.7746
rwrist 2.7824
rhand -8.64266 -50.9394
rfingers 7.12502
rthumb 17.2904 -80.1903
lclavicle 1.63997e-015 -1.39149e-014
lhumerus -29.0138 4.29359 84.0364
lradius 20.6598
lwrist -7.09774
lhand -21.5527 -12.3903
lfingers 7.12502
lthumb 4.84068 17.5344
rfemur -24.1316 7.20032 18.4298
rtibia 6.28519
rfoot -19.0025 -8.25426
rtoes -27.742
lfemur -25.1484 -9.95752 -15.9252
ltibia 7.62958
lfoot -7.90964 5.15969
ltoes -39.9758
78
root 9.24037 16.2994 20.0017 -151.922 -2.76343 -179.599
lowerback -31.697 -0.974623 -4.37371
upperback -3.86073 -1.01885 -0.053103
thorax 12.1871 -1.185 1.7924
lowerneck 0.230957 -2.31454 3.20064
upperneck 1.85025 -3.07906 -4.9402
head 0.403042 -1.56869 -2.09538
rclavicle -9.54166e-015 1.15295e-014
rhumerus -32.703 -17.8567 -81.9452
rradius 26.837
rwrist 2.74426
rhand -8.57215 -51.3067
rfingers 7.12502
rthumb 17.3582 -80.5516
lclavicle -9.54166e-015 1.15295e-014
lhumerus -29.038 4.34809 84.0055
lradius 20.603
lwrist -7.05638
lhand -21.5706 -12.9668
lfingers 7.12502
lthumb 4.82343 16.9583
rfemur -24.125 7.31068 18.374
rtibia 6.24693
rfoot -18.9951 -8.17869
rtoes -27.1443
lfemur -25.1279 -9.99228 -15.9296
ltibia 7.58148
lfoot -7.89726 5.15854
ltoes -39.6488
